<svg width="313" height="86" fill="none" xmlns="http://www.w3.org/2000/svg"><path d="M105.748 54.2h3.64V64h-2.1v-8.232h-.07l-4.788 6.762a1.939 1.939 0 01-.588.546c-.233.14-.499.21-.798.21-.299 0-.565-.07-.798-.21a1.935 1.935 0 01-.588-.546l-4.788-6.762h-.07V64h-2.1v-9.8h3.64l4.704 6.678 4.704-6.678zm5.46 1.064c.168-.243.378-.439.63-.588a2.3 2.3 0 01.826-.294 29.962 29.962 0 012.394-.21 52.18 52.18 0 012.422-.056h.28c.812 0 1.615.019 2.408.056.803.037 1.605.107 2.408.21a2.3 2.3 0 01.826.294c.252.15.467.345.644.588.168.243.28.509.336.798.065.29.061.579-.014.868a226.554 226.554 0 00-.728 3.598c-.168.877-.42 1.554-.756 2.03-.336.476-.7.826-1.092 1.05-.383.215-.77.345-1.162.392a10.44 10.44 0 01-.98.056h-4.06c-.271 0-.602-.019-.994-.056a3.232 3.232 0 01-1.162-.392c-.383-.224-.742-.574-1.078-1.05-.327-.476-.574-1.153-.742-2.03-.131-.672-.257-1.307-.378-1.904a72.894 72.894 0 00-.364-1.694 2.099 2.099 0 01-.014-.868 2.26 2.26 0 01.35-.798zm1.75 1.61c.121.541.243 1.073.364 1.596.121.523.247 1.12.378 1.792.112.588.261 1.027.448 1.316.187.29.392.495.616.616.233.112.481.168.742.168h.784c.056 0 .215.005.476.014h1.708c.271-.01.429-.014.476-.014h.798c.261 0 .504-.056.728-.168.233-.121.443-.327.63-.616.187-.29.336-.728.448-1.316.131-.672.257-1.27.378-1.792.121-.523.243-1.055.364-1.596a.617.617 0 00-.112-.532.63.63 0 00-.462-.28 42.218 42.218 0 00-1.68-.168 31.126 31.126 0 00-2.254-.098h-.322c-.84.01-1.596.042-2.268.098-.663.056-1.218.112-1.666.168a.6.6 0 00-.462.28.617.617 0 00-.112.532zm11.305 5.446h1.47a.429.429 0 00.266-.084.413.413 0 00.14-.238l1.372-5.39a2.57 2.57 0 01.084-.294 2.49 2.49 0 01.224-.49 3.6 3.6 0 01.434-.546c.187-.196.42-.373.7-.532.28-.159.616-.29 1.008-.392a5.753 5.753 0 011.414-.154h4.172a.67.67 0 01.476.182c.14.112.22.261.238.448l.854 7.14c.028.233.224.35.588.35h1.526c.131 0 .229.047.294.14a.338.338 0 01.07.308l-.924 3.556-1.008-.182a.994.994 0 01-.686-.462.962.962 0 01-.098-.798l.238-.882h-10.738l.252.882a.931.931 0 01-.112.798.982.982 0 01-.672.462l-1.008.182-.924-3.556a.362.362 0 01.056-.308.36.36 0 01.294-.14zm10.78 0l-.798-6.44h-2.338c-.485.01-.882.075-1.19.196-.308.112-.546.238-.714.378-.168.14-.284.275-.35.406a1.78 1.78 0 00-.098.266l-1.344 5.194h6.832zm7.417-7.532a.732.732 0 01.28-.42.797.797 0 01.49-.168h6.762c.186 0 .35.056.49.168a.74.74 0 01.28.42c.037.13.112.415.224.854.121.43.256.947.406 1.554.158.597.322 1.241.49 1.932.177.681.336 1.344.476 1.988.149.635.27 1.213.364 1.736.093.513.14.896.14 1.148h-2.128a3.79 3.79 0 00-.042-.532 8.49 8.49 0 00-.112-.63 48.315 48.315 0 00-.14-.644c-.047-.215-.094-.41-.14-.588-.448.047-1.027.093-1.736.14-.7.047-1.489.07-2.366.07-.514 0-1.046-.01-1.596-.028a37.107 37.107 0 01-1.694-.126c-.038.168-.08.36-.126.574-.047.205-.094.415-.14.63-.038.205-.07.406-.098.602a3.794 3.794 0 00-.042.532h-2.128c0-.252.046-.635.14-1.148.093-.523.21-1.101.35-1.736.149-.644.308-1.307.476-1.988.168-.69.326-1.335.476-1.932l.406-1.554c.121-.439.2-.723.238-.854zm1.008 5.236c.476.047.938.08 1.386.098.457.01.9.014 1.33.014.728 0 1.395-.014 2.002-.042a36.04 36.04 0 001.568-.126c.046 0 .079-.014.098-.042a.153.153 0 00.028-.126 55.102 55.102 0 00-.504-1.946c-.168-.644-.346-1.302-.532-1.974h-4.466c-.187.672-.369 1.335-.546 1.988a98.515 98.515 0 00-.49 1.988.121.121 0 00.014.126.15.15 0 00.112.042zM168.469 64h-2.674l-3.22-4.144h-1.33V64h-2.086v-9.8h2.086v3.962h1.232c.364-.196.723-.415 1.078-.658.364-.243.686-.523.966-.84.28-.317.509-.677.686-1.078.177-.41.266-.873.266-1.386h1.708a.36.36 0 01.28.126.316.316 0 01.084.28 4.155 4.155 0 01-.448 1.498 6.968 6.968 0 01-.84 1.246 7.175 7.175 0 01-.952.966 7.25 7.25 0 01-.826.588l3.99 5.096zm.694-8.736c.168-.243.378-.439.63-.588a2.3 2.3 0 01.826-.294 29.962 29.962 0 012.394-.21 52.18 52.18 0 012.422-.056h.28c.812 0 1.615.019 2.408.056.803.037 1.605.107 2.408.21a2.3 2.3 0 01.826.294c.252.15.467.345.644.588.168.243.28.509.336.798.065.29.061.579-.014.868a226.554 226.554 0 00-.728 3.598c-.168.877-.42 1.554-.756 2.03-.336.476-.7.826-1.092 1.05-.383.215-.77.345-1.162.392a10.44 10.44 0 01-.98.056h-4.06c-.271 0-.602-.019-.994-.056a3.232 3.232 0 01-1.162-.392c-.383-.224-.742-.574-1.078-1.05-.327-.476-.574-1.153-.742-2.03-.131-.672-.257-1.307-.378-1.904a72.894 72.894 0 00-.364-1.694 2.099 2.099 0 01-.014-.868 2.26 2.26 0 01.35-.798zm1.75 1.61c.121.541.243 1.073.364 1.596.121.523.247 1.12.378 1.792.112.588.261 1.027.448 1.316.187.29.392.495.616.616.233.112.481.168.742.168h.784c.056 0 .215.005.476.014h1.708c.271-.01.429-.014.476-.014h.798c.261 0 .504-.056.728-.168.233-.121.443-.327.63-.616.187-.29.336-.728.448-1.316.131-.672.257-1.27.378-1.792.121-.523.243-1.055.364-1.596a.617.617 0 00-.112-.532.63.63 0 00-.462-.28 42.218 42.218 0 00-1.68-.168 31.126 31.126 0 00-2.254-.098h-.322c-.84.01-1.596.042-2.268.098-.663.056-1.218.112-1.666.168a.6.6 0 00-.462.28.617.617 0 00-.112.532zm11.994-2.674a633.48 633.48 0 018.498 0v1.68h-2.842a.319.319 0 00-.252.112.342.342 0 00-.098.252V64h-2.1v-7.756a.318.318 0 00-.112-.252.305.305 0 00-.238-.112h-2.856V54.2zm9.484 1.064c.168-.243.378-.439.63-.588a2.3 2.3 0 01.826-.294 29.962 29.962 0 012.394-.21 52.18 52.18 0 012.422-.056h.28c.812 0 1.615.019 2.408.056.803.037 1.606.107 2.408.21a2.3 2.3 0 01.826.294c.252.15.467.345.644.588.168.243.28.509.336.798.066.29.061.579-.014.868a264.892 264.892 0 00-.728 3.598c-.168.877-.42 1.554-.756 2.03-.336.476-.7.826-1.092 1.05-.382.215-.77.345-1.162.392a10.32 10.32 0 01-.98.056h-4.06c-.27 0-.602-.019-.994-.056a3.238 3.238 0 01-1.162-.392c-.382-.224-.742-.574-1.078-1.05-.326-.476-.574-1.153-.742-2.03a187.33 187.33 0 00-.378-1.904 68.045 68.045 0 00-.364-1.694 2.099 2.099 0 01-.014-.868c.066-.29.182-.555.35-.798zm1.75 1.61c.122.541.243 1.073.364 1.596.122.523.248 1.12.378 1.792.112.588.262 1.027.448 1.316.187.29.392.495.616.616.234.112.481.168.742.168h.784c.056 0 .215.005.476.014h1.708c.271-.01.43-.014.476-.014h.798c.262 0 .504-.056.728-.168.234-.121.444-.327.63-.616.187-.29.336-.728.448-1.316.131-.672.257-1.27.378-1.792.122-.523.243-1.055.364-1.596a.614.614 0 00-.112-.532.63.63 0 00-.462-.28 42.218 42.218 0 00-1.68-.168 31.1 31.1 0 00-2.254-.098h-.322c-.84.01-1.596.042-2.268.098-.662.056-1.218.112-1.666.168a.6.6 0 00-.462.28.62.62 0 00-.112.532zM206.97 54.2h8.638c.112 0 .21.005.294.014a.34.34 0 01.21.098.4.4 0 01.14.238c.037.103.056.257.056.462 0 .681-.126 1.274-.378 1.778a4.526 4.526 0 01-.994 1.302 7.5 7.5 0 01-1.386.966c-.504.27-1.018.527-1.54.77-.514.233-1.004.467-1.47.7-.467.233-.859.5-1.176.798a.785.785 0 00-.28.63V64h-2.114v-9.8zm7.14 1.68h-5.026v3.57a6.957 6.957 0 011.05-.644c.373-.187.746-.36 1.12-.518l1.078-.462c.345-.159.648-.331.91-.518.261-.187.471-.392.63-.616.158-.233.238-.504.238-.812zm3.572-1.092a.737.737 0 01.28-.42.801.801 0 01.49-.168h6.762a.76.76 0 01.49.168c.14.103.234.243.28.42.038.13.112.415.224.854.122.43.257.947.406 1.554a92.9 92.9 0 01.49 1.932c.178.681.336 1.344.476 1.988.15.635.271 1.213.364 1.736.094.513.14.896.14 1.148h-2.128a3.79 3.79 0 00-.042-.532 8 8 0 00-.112-.63 29.24 29.24 0 00-.14-.644c-.046-.215-.093-.41-.14-.588-.448.047-1.026.093-1.736.14-.7.047-1.488.07-2.366.07-.513 0-1.045-.01-1.596-.028a37.32 37.32 0 01-1.694-.126l-.126.574-.14.63c-.037.205-.07.406-.098.602a3.794 3.794 0 00-.042.532h-2.128c0-.252.047-.635.14-1.148.094-.523.21-1.101.35-1.736a338.382 338.382 0 01.952-3.92l.406-1.554.238-.854zm1.008 5.236c.476.047.938.08 1.386.098.458.01.901.014 1.33.014.728 0 1.396-.014 2.002-.042.607-.037 1.13-.08 1.568-.126.047 0 .08-.014.098-.042a.15.15 0 00.028-.126 51.06 51.06 0 00-.504-1.946c-.168-.644-.345-1.302-.532-1.974H219.6c-.186.672-.368 1.335-.546 1.988-.168.653-.331 1.316-.49 1.988-.018.047-.014.089.014.126a.152.152 0 00.112.042zm18.441-4.144h-5.026c0 .308.079.579.238.812.159.224.369.43.63.616.261.187.565.36.91.518.345.15.705.303 1.078.462.373.159.747.331 1.12.518.373.187.723.401 1.05.644v-3.57zm1.82-1.68c.131 0 .21.014.238.042.028.019.042.098.042.238V64h-2.1v-2.394c-.299-.355-.7-.663-1.204-.924a28.631 28.631 0 00-1.61-.812c-.112.084-.28.243-.504.476a8.806 8.806 0 00-.714.868c-.261.355-.527.77-.798 1.246-.271.467-.509.98-.714 1.54h-2.1c.317-.793.625-1.475.924-2.044.308-.57.593-1.05.854-1.442a9.528 9.528 0 011.26-1.54 9.606 9.606 0 01-1.008-.7 4.872 4.872 0 01-.84-.854 4.137 4.137 0 01-.56-1.064 4.06 4.06 0 01-.21-1.344c0-.205.014-.36.042-.462a.515.515 0 01.14-.238.405.405 0 01.224-.098 2.54 2.54 0 01.294-.014h8.344zm6.573 0a633.48 633.48 0 018.498 0v1.68h-2.842a.321.321 0 00-.252.112.342.342 0 00-.098.252V64h-2.1v-7.756a.318.318 0 00-.112-.252.303.303 0 00-.238-.112h-2.856V54.2zm22.597 0V64h-2.1v-8.372c-.112 0-.21.005-.294.014a.661.661 0 00-.238.084.843.843 0 00-.238.196 5.435 5.435 0 00-.658.826l-.574.812c-.224.317-.467.667-.728 1.05-.262.383-.528.765-.798 1.148-.262.383-.518.76-.77 1.134-.252.364-.476.69-.672.98-.196.28-.355.509-.476.686a5.71 5.71 0 00-.196.294 5.47 5.47 0 01-.364.476c-.112.14-.234.261-.364.364a1.755 1.755 0 01-.434.224 1.52 1.52 0 01-.532.084h-3.262v-9.8h2.1v8.414h.168c.102 0 .2-.023.294-.07a.573.573 0 00.224-.196l.602-.84c.261-.364.546-.77.854-1.218.317-.448.644-.915.98-1.4.336-.485.653-.943.952-1.372.308-.439.578-.821.812-1.148.233-.336.401-.574.504-.714.186-.243.354-.453.504-.63.149-.187.308-.34.476-.462.168-.121.354-.21.56-.266.205-.065.457-.098.756-.098h2.912zm10.707 9.8h-2.674l-3.22-4.144h-1.33V64h-2.086v-9.8h2.086v3.962h1.232c.364-.196.724-.415 1.078-.658.364-.243.686-.523.966-.84.28-.317.509-.677.686-1.078a3.45 3.45 0 00.266-1.386h1.708c.112 0 .206.042.28.126a.316.316 0 01.084.28 4.155 4.155 0 01-.448 1.498 6.864 6.864 0 01-.84 1.246 7.175 7.175 0 01-.952.966 7.163 7.163 0 01-.826.588l3.99 5.096zm2.36-9.212a.737.737 0 01.28-.42.801.801 0 01.49-.168h6.762a.76.76 0 01.49.168c.14.103.234.243.28.42.038.13.112.415.224.854.122.43.257.947.406 1.554a92.9 92.9 0 01.49 1.932c.178.681.336 1.344.476 1.988.15.635.271 1.213.364 1.736.094.513.14.896.14 1.148h-2.128a3.79 3.79 0 00-.042-.532 8 8 0 00-.112-.63 29.24 29.24 0 00-.14-.644c-.046-.215-.093-.41-.14-.588-.448.047-1.026.093-1.736.14-.7.047-1.488.07-2.366.07-.513 0-1.045-.01-1.596-.028a37.32 37.32 0 01-1.694-.126l-.126.574-.14.63c-.037.205-.07.406-.098.602a3.794 3.794 0 00-.042.532h-2.128c0-.252.047-.635.14-1.148.094-.523.21-1.101.35-1.736a338.382 338.382 0 01.952-3.92l.406-1.554.238-.854zm1.008 5.236c.476.047.938.08 1.386.098.458.01.901.014 1.33.014.728 0 1.396-.014 2.002-.042.607-.037 1.13-.08 1.568-.126.047 0 .08-.014.098-.042a.15.15 0 00.028-.126 51.06 51.06 0 00-.504-1.946c-.168-.644-.345-1.302-.532-1.974h-4.466c-.186.672-.368 1.335-.546 1.988-.168.653-.331 1.316-.49 1.988-.018.047-.014.089.014.126a.152.152 0 00.112.042zM292.993 64v-9.8h8.82v1.666h-6.72v2.59l5.432-1.288.182.784a.857.857 0 01-.098.658.827.827 0 01-.532.378l-4.746 1.12a.336.336 0 00-.182.112.348.348 0 00-.056.196v1.918h6.72v.784a.862.862 0 01-.266.63.837.837 0 01-.616.252h-7.938zm10.227-9.8a633.48 633.48 0 018.498 0v1.68h-2.842a.319.319 0 00-.252.112.338.338 0 00-.098.252V64h-2.1v-7.756a.322.322 0 00-.112-.252.306.306 0 00-.238-.112h-2.856V54.2z" fill="#fff"/><path d="M78.458 27.583l-4.113 1.256a2.827 2.827 0 00-1.86 3.586c.14.42.272.85.393 1.279a2.795 2.795 0 001.364 1.708 2.814 2.814 0 002.18.222l4.11-1.255a2.836 2.836 0 001.898-3.47 38.839 38.839 0 00-.462-1.509 2.838 2.838 0 00-3.51-1.817zm1.485 2.48c.153.47.3.952.437 1.43a.702.702 0 01-.469.847l-4.113 1.255a.694.694 0 01-.869-.472 37.965 37.965 0 00-.419-1.364.693.693 0 01.459-.881l4.113-1.256a.7.7 0 01.861.44zM69.75 24.598a2.816 2.816 0 00.252 2.16l.009.017a2.827 2.827 0 003.84 1.1l3.761-2.082a2.827 2.827 0 001.108-3.84l-.026-.048a2.828 2.828 0 00-3.835-1.085l-3.761 2.084a2.801 2.801 0 00-1.348 1.694zm2.05.586a.674.674 0 01.33-.416l3.763-2.085a.695.695 0 01.94.26l.024.047a.664.664 0 01.059.517.691.691 0 01-.336.421l-3.761 2.082a.699.699 0 01-.945-.27l-.01-.018a.691.691 0 01-.065-.538zm9.242 11.802l-4.296.149a2.825 2.825 0 00-2.721 3.028c.062.812.092 1.641.092 2.462v.184a2.825 2.825 0 002.824 2.847c.032 0 .066 0 .1-.002l4.294-.147a2.816 2.816 0 002.73-2.808 41.95 41.95 0 00-.105-3.095 2.815 2.815 0 00-2.918-2.618zm.891 5.706a.689.689 0 01-.673.684l-4.29.15h-.03a.695.695 0 01-.692-.708v-.19c0-.877-.034-1.76-.097-2.625a.674.674 0 01.172-.506.683.683 0 01.497-.233l4.296-.149h.027a.678.678 0 01.69.638c.067.929.1 1.87.1 2.799v.14zm-39.31-3.412a.708.708 0 01-.475-.67v-9.105a.71.71 0 01.71-.71h.544a.71.71 0 00.634-1.029l-1.962-3.926a.71.71 0 00-1.272 0l-1.962 3.926a.71.71 0 00.633 1.029h.544a.71.71 0 01.71.71v9.106a.709.709 0 01-.474.67 3.553 3.553 0 102.37 0zm-1.185 4.769a1.42 1.42 0 110-2.841 1.42 1.42 0 010 2.841zM33.7 46.275a.71.71 0 01-.97-.259l-.272-.469a.71.71 0 00-1.208-.038l-2.419 3.665a.71.71 0 00.634 1.1l4.384-.263a.711.711 0 00.573-1.066l-.271-.467a.711.711 0 01.259-.972l3.124-1.803a4.969 4.969 0 01-.713-1.23L33.7 46.275z" fill="#405AF3"/><path d="M72.956 61.9a1.926 1.926 0 012.242-.834 4.762 4.762 0 005.889-2.773 42.484 42.484 0 001.634-5.03 4.763 4.763 0 00-3.133-5.71l-6.506-2.113a2.611 2.611 0 00-.506-.114 31.146 31.146 0 00-6.715-22.186l2.852-.286a2.831 2.831 0 002.56-2.827V9.607a2.842 2.842 0 00-5.025-1.82l-.092.111a44.502 44.502 0 00-1.838-1.241 4.768 4.768 0 00-6.412 1.21 1.925 1.925 0 01-2.305.631 36.454 36.454 0 00-5.573-1.81 1.919 1.919 0 01-1.489-1.862A4.762 4.762 0 0044.074.08a43.611 43.611 0 00-5.278 0 4.763 4.763 0 00-4.465 4.746 1.92 1.92 0 01-1.488 1.863 36.535 36.535 0 00-5.575 1.81 1.921 1.921 0 01-2.304-.633 4.763 4.763 0 00-6.403-1.213 42.543 42.543 0 00-4.27 3.108 4.765 4.765 0 00-.816 6.465 1.922 1.922 0 01-.11 2.383 37.091 37.091 0 00-3.451 4.74 1.927 1.927 0 01-2.241.835 4.764 4.764 0 00-5.89 2.773 42.496 42.496 0 00-1.634 5.03 4.773 4.773 0 003.147 5.715 1.92 1.92 0 011.311 1.99 38.348 38.348 0 00-.114 2.933c0 .977.04 1.964.114 2.932a1.93 1.93 0 01-1.325 1.996 4.763 4.763 0 00-3.133 5.71 42.49 42.49 0 001.634 5.03 4.77 4.77 0 005.902 2.769 1.917 1.917 0 012.229.838 37.247 37.247 0 003.449 4.74 1.922 1.922 0 01.107 2.39 4.763 4.763 0 00.82 6.459 42.853 42.853 0 004.271 3.108 4.762 4.762 0 006.403-1.215 1.925 1.925 0 012.305-.63 36.451 36.451 0 005.574 1.81 1.92 1.92 0 011.488 1.862 4.763 4.763 0 004.465 4.746c1.758.107 3.52.107 5.278 0a4.762 4.762 0 004.465-4.746 1.919 1.919 0 011.489-1.863 36.456 36.456 0 005.573-1.81 1.924 1.924 0 012.305.633 4.764 4.764 0 006.403 1.213 42.83 42.83 0 004.271-3.108 4.765 4.765 0 00.815-6.465 1.92 1.92 0 01.112-2.383 37.49 37.49 0 003.45-4.74zM67.01 40.494a2.132 2.132 0 010 4.262h-1.42a2.131 2.131 0 110-4.262h1.42zm-6.502 13.142a2.13 2.13 0 012.91-.78l1.232.711a2.131 2.131 0 01-2.132 3.69l-1.23-.71a2.133 2.133 0 01-.78-2.91zm.78-24.933l1.23-.71a2.13 2.13 0 112.132 3.69l-1.231.71a2.13 2.13 0 01-2.131-3.69zm6.6 36.55a4.046 4.046 0 00-.217 5.023 2.634 2.634 0 01-.448 3.572 41.066 41.066 0 01-4.058 2.951 2.629 2.629 0 01-3.534-.667 4.048 4.048 0 00-4.847-1.348 34.63 34.63 0 01-5.25 1.705 4.04 4.04 0 00-3.126 3.935 2.628 2.628 0 01-2.463 2.618 41.526 41.526 0 01-5.02 0 2.628 2.628 0 01-2.463-2.618 4.04 4.04 0 00-3.126-3.935 34.63 34.63 0 01-5.25-1.705 4.129 4.129 0 00-1.58-.316 4.022 4.022 0 00-3.265 1.662 2.632 2.632 0 01-3.536.67 40.77 40.77 0 01-4.058-2.952 2.631 2.631 0 01-.453-3.567 4.048 4.048 0 00-.211-5.028 34.924 34.924 0 01-3.25-4.466 4.045 4.045 0 00-4.707-1.751 2.635 2.635 0 01-3.26-1.528 40.354 40.354 0 01-1.553-4.774 2.63 2.63 0 011.728-3.154 4.054 4.054 0 002.792-4.188 35.007 35.007 0 010-5.532 4.045 4.045 0 00-2.778-4.185 2.64 2.64 0 01-1.742-3.157 40.279 40.279 0 011.552-4.776 2.627 2.627 0 013.249-1.531 4.051 4.051 0 004.719-1.748 34.924 34.924 0 013.25-4.467 4.046 4.046 0 00.216-5.022 2.634 2.634 0 01.448-3.572 40.767 40.767 0 014.058-2.952 2.63 2.63 0 013.535.668 4.046 4.046 0 004.846 1.348 34.636 34.636 0 015.25-1.705 4.04 4.04 0 003.126-3.935 2.628 2.628 0 012.463-2.618 41.513 41.513 0 015.02 0 2.627 2.627 0 012.463 2.618 4.04 4.04 0 003.126 3.935 34.7 34.7 0 015.25 1.705 4.043 4.043 0 004.845-1.346 2.636 2.636 0 013.543-.666 41.741 41.741 0 012.524 1.748 1.066 1.066 0 001.456-.17l.734-.88a.71.71 0 011.255.455v10.42a.708.708 0 01-.64.706l-9.47.947a.71.71 0 01-.619-1.161l1.238-1.483a.713.713 0 00-.126-1.029 30.313 30.313 0 00-18.089-5.93c-16.844 0-30.548 13.704-30.548 30.548 0 16.844 13.704 30.548 30.548 30.548 14.441 0 26.571-10.072 29.74-23.561a.163.163 0 00.012-.037c.12-.512.228-1.034.32-1.553a.71.71 0 01.918-.556l6.504 2.114a2.627 2.627 0 011.728 3.154 40.347 40.347 0 01-1.552 4.774 2.626 2.626 0 01-3.249 1.531 4.052 4.052 0 00-4.718 1.748 34.935 34.935 0 01-3.25 4.467zm-11.82-43.711l-.71 1.23a2.113 2.113 0 01-1.293.993 2.108 2.108 0 01-1.618-.213 2.13 2.13 0 01-.78-2.91l.71-1.232a2.132 2.132 0 013.69 2.132zm.213 43.782a2.132 2.132 0 01-3.904.516l-.71-1.231a2.131 2.131 0 013.69-2.131l.71 1.23a2.11 2.11 0 01.214 1.617zM41.435 47.599a4.94 4.94 0 01-2.822-.883l-2.884 1.666a2.13 2.13 0 01-1.798 3.044l-4.383.263a2.13 2.13 0 01-1.906-3.3l2.42-3.664a2.13 2.13 0 013.534-.033l2.884-1.666a4.98 4.98 0 012.824-4.891v-7.929a2.131 2.131 0 01-1.739-3.078l1.963-3.927a2.134 2.134 0 013.815 0l1.962 3.927a2.13 2.13 0 01-1.739 3.078v7.928a4.972 4.972 0 01-2.13 9.465zm2.131 19.181v1.42a2.131 2.131 0 11-4.262 0v-1.42a2.132 2.132 0 014.262 0zm-16.764-3.07l.71-1.232a2.13 2.13 0 113.691 2.132l-.71 1.23a2.13 2.13 0 11-3.69-2.13zm-.213-43.784a2.13 2.13 0 013.904-.515l.71 1.231a2.135 2.135 0 01-1.841 3.199 2.13 2.13 0 01-.556-.075 2.115 2.115 0 01-1.293-.993l-.71-1.23a2.11 2.11 0 01-.214-1.617zm12.715-1.454V17.05a2.131 2.131 0 014.262 0v1.42a2.13 2.13 0 11-4.262 0zM18.22 53.567l1.231-.71a2.131 2.131 0 012.131 3.69l-1.23.71a2.131 2.131 0 01-2.132-3.69zm-2.36-8.81a2.13 2.13 0 110-4.263h1.42a2.131 2.131 0 010 4.262h-1.42zm6.502-13.143a2.131 2.131 0 01-2.91.78l-1.232-.711a2.131 2.131 0 112.132-3.69l1.23.71a2.133 2.133 0 01.78 2.91z" fill="#405AF3"/><path d="M93.3 16.8h4.758l4.94 7.176 4.81-7.176h4.758l-7.618 11.102V35h-3.978v-7.098L93.3 16.8zm20.025 1.976a3.71 3.71 0 011.17-1.092 4.28 4.28 0 011.534-.546c1.491-.19 2.973-.32 4.446-.39 1.491-.07 2.99-.104 4.498-.104h.52c1.508 0 2.999.035 4.472.104 1.491.07 2.982.2 4.472.39a4.273 4.273 0 011.534.546c.468.277.867.641 1.196 1.092.312.45.52.945.624 1.482a3.369 3.369 0 01-.026 1.612 462.758 462.758 0 00-1.352 6.682c-.312 1.63-.78 2.886-1.404 3.77-.624.884-1.3 1.534-2.028 1.95a5.79 5.79 0 01-2.158.728c-.71.07-1.317.104-1.82.104h-7.54c-.502 0-1.118-.035-1.846-.104-.71-.087-1.43-.33-2.158-.728-.71-.416-1.378-1.066-2.002-1.95-.606-.884-1.066-2.14-1.378-3.77a382.532 382.532 0 00-.702-3.536c-.225-1.11-.45-2.158-.676-3.146a3.893 3.893 0 01-.026-1.612 4.22 4.22 0 01.65-1.482zm3.25 2.99c.226 1.005.451 1.993.676 2.964.226.97.46 2.08.702 3.328.208 1.092.486 1.907.832 2.444.347.537.728.919 1.144 1.144.434.208.893.312 1.378.312h1.456c.104 0 .399.009.884.026h3.172c.503-.017.798-.026.884-.026h1.482c.486 0 .936-.104 1.352-.312.434-.225.824-.607 1.17-1.144.347-.537.624-1.352.832-2.444.243-1.248.477-2.357.702-3.328.226-.97.451-1.959.676-2.964.087-.347.018-.676-.208-.988-.225-.312-.511-.485-.858-.52a78.405 78.405 0 00-3.12-.312 57.789 57.789 0 00-4.186-.182h-.598a58.86 58.86 0 00-4.212.182c-1.23.104-2.262.208-3.094.312-.364.035-.65.208-.858.52-.225.312-.294.641-.208.988zm23.799-4.966h3.926c.156 1.803.304 3.458.442 4.966.052.641.113 1.291.182 1.95.07.659.13 1.265.182 1.82.07.555.13 1.049.182 1.482.052.433.096.754.13.962.208 1.057.486 1.855.832 2.392.347.537.728.919 1.144 1.144.434.208.893.32 1.378.338.486.017.971.026 1.456.026h.624c.486 0 .971-.009 1.456-.026.486-.017.945-.13 1.378-.338.434-.225.815-.607 1.144-1.144.347-.537.624-1.335.832-2.392.035-.208.078-.529.13-.962.052-.433.104-.927.156-1.482.07-.572.139-1.179.208-1.82.07-.659.13-1.309.182-1.95.139-1.525.286-3.18.442-4.966h3.926c-.156 1.837-.303 3.545-.442 5.122a77.088 77.088 0 01-.182 2.028c-.069.676-.138 1.309-.208 1.898a71.07 71.07 0 01-.156 1.586c-.052.45-.104.797-.156 1.04-.208 1.075-.494 1.985-.858 2.73-.346.745-.736 1.36-1.17 1.846a4.919 4.919 0 01-1.404 1.118c-.485.26-.97.45-1.456.572a7.9 7.9 0 01-1.352.234c-.433.017-.814.026-1.144.026h-3.276c-.329 0-.719-.009-1.17-.026a8.516 8.516 0 01-1.378-.234 6.492 6.492 0 01-1.43-.572c-.485-.26-.944-.633-1.378-1.118-.433-.485-.832-1.1-1.196-1.846-.346-.745-.624-1.655-.832-2.73-.052-.243-.104-.59-.156-1.04-.052-.468-.112-.997-.182-1.586-.052-.59-.112-1.222-.182-1.898a81.622 81.622 0 01-.182-2.028c-.138-1.577-.286-3.285-.442-5.122zm22.141.52c0-.26.026-.407.078-.442.052-.052.199-.078.442-.078h15.496c.208 0 .39.009.546.026a.633.633 0 01.39.182c.121.087.208.234.26.442.069.19.104.477.104.858 0 .919-.13 1.75-.39 2.496a6.73 6.73 0 01-1.04 1.976 7.927 7.927 0 01-1.56 1.586c-.589.468-1.222.901-1.898 1.3.26.26.589.615.988 1.066.399.45.841 1.049 1.326 1.794.503.728 1.04 1.62 1.612 2.678.572 1.057 1.153 2.323 1.742 3.796h-4.316a19.4 19.4 0 00-1.248-2.704 22.318 22.318 0 00-1.404-2.21 16.847 16.847 0 00-1.3-1.638c-.399-.45-.719-.78-.962-.988l-.364.156c-.381.173-.789.364-1.222.572-.416.208-.832.433-1.248.676-.416.243-.815.503-1.196.78a5.16 5.16 0 00-.936.91V35h-3.9V17.32zm3.9 9.23a13.08 13.08 0 011.95-1.196 37.099 37.099 0 012.08-.962c.693-.295 1.361-.58 2.002-.858a10.306 10.306 0 001.69-.962 4.92 4.92 0 001.17-1.144c.295-.433.442-.936.442-1.508h-9.334v6.63z" fill="#fff"/><path d="M183.208 16.8c5.27-.035 10.53-.035 15.782 0v3.12h-5.278c-.19 0-.346.07-.468.208a.635.635 0 00-.182.468V35h-3.9V20.596a.592.592 0 00-.208-.468.565.565 0 00-.442-.208h-5.304V16.8zm22.283 0V35h-3.9V16.8h3.9zm26.832 0h6.76V35h-3.9V19.712h-.13l-8.892 12.558a3.594 3.594 0 01-1.092 1.014c-.433.26-.927.39-1.482.39-.555 0-1.049-.13-1.482-.39a3.594 3.594 0 01-1.092-1.014l-8.892-12.558h-.13V35h-3.9V16.8h6.76l8.736 12.402 8.736-12.402zm17.555 15.106c.676.139 1.43.217 2.262.234.832.017 1.621.009 2.366-.026.849-.052 1.716-.13 2.6-.234l.208 1.69c.035.399-.078.754-.338 1.066a1.313 1.313 0 01-.962.52c-.416.035-.893.06-1.43.078a24.86 24.86 0 01-1.664.052h-1.17a21.457 21.457 0 01-2.08-.104 10.553 10.553 0 01-1.04-.104 8.78 8.78 0 01-.884-.182 5.127 5.127 0 01-.936-.39c-.329-.19-.693-.52-1.092-.988-.399-.485-.841-1.153-1.326-2.002-.468-.85-1.005-1.967-1.612-3.354l-2.132-5.694-.13-.442c-.087-.312-.009-.555.234-.728l3.042-2.184.52-1.82a.58.58 0 01.234-.338.692.692 0 01.416-.156h11.57v3.12h-7.722v.052l.936.182 5.928 2.782-1.482 1.56a1.682 1.682 0 01-.858.468c-.329.052-.65.009-.962-.13l-6.552-3.068-.598.468a.71.71 0 00-.26.364.683.683 0 00.026.416c.191.537.416 1.161.676 1.872.277.71.581 1.456.91 2.236.537 1.23 1.005 2.175 1.404 2.834.416.659.763 1.135 1.04 1.43.329.33.615.503.858.52z" fill="#405AF3"/></svg>